<?xml version="1.0" standalone="no"?><!DOCTYPE svg PUBLIC "-//W3C//DTD SVG 1.1//EN" "http://www.w3.org/Graphics/SVG/1.1/DTD/svg11.dtd"><svg t="1648369975907" class="icon" viewBox="0 0 1024 1024" version="1.1" xmlns="http://www.w3.org/2000/svg" p-id="2633" xmlns:xlink="http://www.w3.org/1999/xlink" width="128" height="128"><defs><style type="text/css"></style></defs><path d="M0 0h1024v1024H0z" fill="#FFFFFF" fill-opacity="0" p-id="2634"></path><path d="M515.806691 470.126394m-390.185873 0a390.185874 390.185874 0 1 0 780.371747 0 390.185874 390.185874 0 1 0-780.371747 0Z" fill="#E2E9F4" p-id="2635"></path><path d="M343.287435 908.173799l0.97832-21.995063a71.032862 71.032862 0 0 1 33.133442-8.386141c-15.91197 13.007465-13.924877 38.089755-24.713041 55.585308a42.726305 42.726305 0 0 1-31.332877 19.741502l-13.315807 8.153933a71.596253 71.596253 0 0 1 15.089725-58.013977c3.722944-4.453829 7.994052-8.424208 12.710543-11.812164 3.190007 8.412788 7.449695 16.726602 7.449695 16.726602z" fill="#E2E9F4" p-id="2636"></path><path d="M893.735019 587.703673c35.8971-27.347271 53.046245-73.297844 42.311375-117.131896-0.266468-1.09252-0.548164-2.177428-0.845085-3.262335-7.118513-26.018736-24.724461-50.75081-50.385368-59.064624-21.545874-6.981472-45.071227-1.61023-67.54974-4.389115-44.127167-5.447375-78.34171-41.150335-102.41142-78.535852-24.073517-37.385517-42.574037-79.232476-74.561666-110.116163C587.570439 164.296803 501.558245 153.333532 436.185933 186.470781c-65.372312 33.141056-107.01371 106.655881-105.239792 179.927078 1.777725 73.271197 45.272981 143.321933 108.445026 180.486661 23.205591 13.654602 50.042766 23.327405 76.75432 19.943257 23.175138-2.938766 44.233755-15.390454 67.302305-19.086751 36.266349-5.812818 72.304297 10.582602 103.671435 29.692193 31.367138 19.109591 61.668401 41.759405 97.31426 50.61377 34.614245 8.603123 77.492818-16.121338 109.297725-40.343316z" fill="#D9E1EE" p-id="2637"></path><path d="M606.596283 289.384684H248.919554A28.169517 28.169517 0 0 0 220.788104 317.519941v178.012312a28.169517 28.169517 0 0 0 28.135257 28.135256h357.669115a28.158097 28.158097 0 0 0 28.135256-28.135256V317.519941A28.158097 28.158097 0 0 0 606.596283 289.384684z" fill="#FFFFFF" p-id="2638"></path><path d="M428.252788 365.518513a25.436312 25.436312 0 0 1 25.436312 25.436312l-0.003806 7.263168H464.416357a3.806691 3.806691 0 0 1 3.806691 3.806691v43.263048a3.806691 3.806691 0 0 1-3.806691 3.806692H392.089219a3.806691 3.806691 0 0 1-3.806691-3.806692V402.024684a3.806691 3.806691 0 0 1 3.806691-3.806691l10.727257-0.003807v-7.263167A25.436312 25.436312 0 0 1 428.252788 365.518513z m0 9.082766a16.353546 16.353546 0 0 0-16.330706 15.584595l-0.019034 0.768951-0.003806 7.263168h32.703286v-7.263168a16.353546 16.353546 0 0 0-15.580788-16.334513l-0.768952-0.019033z" fill="#D9E1EE" p-id="2639"></path><path d="M622.302691 575.819182h-342.754498a11.172639 11.172639 0 0 1 0-22.341472h342.754498a11.172639 11.172639 0 0 1 0 22.345279zM553.797472 290.937814v37.572045c0 1.865279-3.266141 3.426022-7.666676 3.856178a30.563926 30.563926 0 0 1-2.405829 0.114201 20.152625 20.152625 0 0 1-7.12232-1.164848c-0.209368-0.083747-0.418736-0.178914-0.624298-0.262661-0.190335-0.110394-0.399703-0.205561-0.593843-0.315956-1.09252-0.650944-1.728238-1.412283-1.728238-2.226914v-37.572045h20.137397z" fill="#D9E1EE" p-id="2640"></path><path d="M831.198691 649.954498H681.740372A11.77029 11.77029 0 0 1 669.977695 638.191822v-74.390365a11.77029 11.77029 0 0 1 11.75887-11.75887h149.462126a11.77029 11.77029 0 0 1 11.75887 11.75887v74.390365a11.77029 11.77029 0 0 1-11.75887 11.758869z" fill="#FFFFFF" p-id="2641"></path><path d="M807.646691 685.03316h-100.686988a11.172639 11.172639 0 0 1 0-22.345279h100.686988a11.172639 11.172639 0 1 1 0 22.345279z" fill="#D9E1EE" p-id="2642"></path><path d="M832.203658 649.813651h-149.465933a13.155926 13.155926 0 0 1-13.140699-13.140699V562.286394a13.155926 13.155926 0 0 1 13.140699-13.140699h149.465933a13.155926 13.155926 0 0 1 13.140699 13.140699v74.390364a13.155926 13.155926 0 0 1-13.140699 13.140699z m-149.465933-97.908105a10.384654 10.384654 0 0 0-10.373234 10.377041v74.390365a10.384654 10.384654 0 0 0 10.373234 10.377041h149.465933a10.384654 10.384654 0 0 0 10.373234-10.377041V562.286394a10.384654 10.384654 0 0 0-10.373234-10.373234h-149.465933z" fill="#D9D8DD" p-id="2643"></path><path d="M757.531599 582.499926a12.112892 12.112892 0 0 1 12.112892 12.112892l-0.003807 3.456476H772.758364a3.806691 3.806691 0 0 1 3.806692 3.806691v16.616208a3.806691 3.806691 0 0 1-3.806692 3.806692h-30.453531a3.806691 3.806691 0 0 1-3.806692-3.806692v-16.612401a3.806691 3.806691 0 0 1 3.806692-3.806692l3.113873-0.003806v-3.456476A12.112892 12.112892 0 0 1 757.531599 582.499926z m0 4.324401a7.788491 7.788491 0 0 0-7.777071 7.423048l-0.007614 0.365443-0.003806 3.456476h15.573175v-3.456476a7.788491 7.788491 0 0 0-7.419242-7.777071l-0.365442-0.01142z" fill="#D9E1EE" p-id="2644"></path><path d="M343.706171 451.964669l-76.503078 0.513903s-43.567584-14.046691-63.328119-11.115539l-7.556283 29.680774 54.272 17.98281 94.455435-13.704089a13.521368 13.521368 0 1 0-1.343762-23.357859z" fill="#FFC6A0" p-id="2645"></path><path d="M249.947361 491.900669l-90.762945-26.10629-8.264327-30.78852a24.861502 24.861502 0 0 1 1.922379-26.171004c7.746617-10.495048 13.803063-0.072327 24.800595 6.947212 19.277086 1.362796 67.393665 17.826736 86.921993 36.88684l-1.537904 11.720803L249.947361 491.900669z" fill="#FFFFFF" p-id="2646"></path><path d="M265.600476 945.292848h19.307539l9.185546-74.477919H265.592862z" fill="#FFC6A0" p-id="2647"></path><path d="M260.674617 938.98516h5.435955l21.214692-8.625963 11.374394 8.625963a24.233398 24.233398 0 0 1 24.233398 24.233398v0.787985H260.674617v-25.021383z" fill="#2F2E41" p-id="2648"></path><path d="M128.102781 927.112089l18.291152 6.193487 32.585279-67.591613-26.989442-9.139866z" fill="#FFC6A0" p-id="2649"></path><path d="M125.460937 919.56342l5.146647 1.743465 22.862988-1.370409 8.005473 11.819777a24.233398 24.233398 0 0 1 15.181085 30.727613l-0.251242 0.742305-58.969457-19.966097 8.024506-23.696654zM150.48232 624.502959s-2.253561 27.054156 3.384148 52.981532c5.633903 25.927375 17.765829 111.992862 17.765829 111.992862-24.568387 40.38519-38.809219 80.123242-41.496743 120.344744l34.579985 2.767464 49.517442-117.485918 5.01722-117.619152 36.072208 80.035687-1.853859 6.185874a6.966245 6.966245 0 0 0 2.976833 7.906498s-3.376535 21.983643-1.122974 21.983643c2.253561 0 7.891271 3.380342 7.891271 3.380342-14.054305 43.750305-15.938617 85.650558-3.052966 125.297249l30.430691-1.385635 19.969904-172.386023-14.655763-93.564669-1.12678-18.036104-5.07432 0.209368-2.580937-7.537249-4.746944-12.961784-131.894245 7.891271z" fill="#2F2E41" p-id="2650"></path><path d="M148.5371 630.182543l-0.201754-0.281695c-10.731063-15.021204 5.405502-51.120059 7.841784-56.354261l-10.25142-3.327048-8.964758-75.85594-6.555123-26.205264a57.534335 57.534335 0 0 1 16.330706-55.75661l15.150632-14.29032 18.42058-27.252104h29.699807l10.1829 19.235212a43.289695 43.289695 0 0 1 33.495078 44.195688l-2.310662 50.453888 9.037085 62.810409 0.003807 11.370588 15.687376 25.718007 3.418408 15.94623c1.412283 1.865279 10.74629 14.31316 10.74629 17.712536 0 0.510097-0.376862 1.004967-1.183881 1.55313-6.360981 4.305368-41.519584 13.087405-57.081338 6.859658-16.574335-6.623643-82.46055 3.311822-83.122914 3.418409l-0.342603 0.049487z" fill="#FFFFFF" p-id="2651"></path><path d="M451.915182 963.507866a1.648297 1.648297 0 0 1-1.636877 1.644491H62.551554a1.644491 1.644491 0 1 1 0-3.288982h387.715331a1.636877 1.636877 0 0 1 1.648297 1.636878v0.007613z" fill="#E2E9F4" p-id="2652"></path><path d="M198.994796 322.727494m-39.334543 0a39.334543 39.334543 0 1 0 78.669085 0 39.334543 39.334543 0 1 0-78.669085 0Z" fill="#FFC6A0" p-id="2653"></path><path d="M338.97826 582.903435L278.280565 536.336178s-25.767494-37.838513-43.167881-47.652163l-24.180104 18.786022 31.797294 47.515123 82.96684 47.176327a13.521368 13.521368 0 1 0 13.281546-19.261859z" fill="#FFC6A0" p-id="2654"></path><path d="M240.453472 556.858052L194.788401 481.812937l2.436283-30.659093a24.861502 24.861502 0 0 1 17.586915-19.47884c12.554468-3.524996 10.936625 8.420401 15.306706 20.708401 14.377874 12.912297 42.250468 55.448268 45.961992 82.491004l-8.412788 8.298587-27.217844 13.685056z" fill="#FFFFFF" p-id="2655"></path><path d="M225.965204 277.317472c-2.816952-0.087554-1.850052-5.401695-4.122646-7.095673a5.534929 5.534929 0 0 1-10.613056 0.605264 8.412788 8.412788 0 0 0-5.344595-5.60345c-0.140848 4.925859-3.863792 9.200773-8.310007 11.324907-4.442409 2.131747-9.512922 2.481963-14.438781 2.55429-4.925859 0.076134-9.924045-0.091361-14.701442 1.115361s-9.425368 4.0389-11.465755 8.526989c-2.040387 4.480476-0.58623 10.658736 3.879019 12.744803-3.460283 0.015227-6.395242 2.870245-7.586737 6.113546a24.286691 24.286691 0 0 0-0.749918 10.26284c0.970706 12.721963 3.338468 26.414632 12.600149 35.18525 7.061413 6.68455 17.164372 9.379688 26.886662 9.34162 9.72229-0.038067 8.013086-0.932639 17.411806-3.414602 0 0 8.938112-25.619033 6.684551-28.14287-2.245948-2.52003-4.11884-5.744297-3.711525-9.097992 0.407316-3.353695 4.012253-6.357175 7.141354-5.081933-0.525323-1.343762-0.921219-1.59881-1.172461-1.534097 0.159881-0.380669 0.296922-0.772758 0.418736-1.168654a13.30058 13.30058 0 0 1 8.302394-8.808684 10.316134 10.316134 0 0 1 11.27542 3.414602c10.293294-9.65377 3.909472-30.758067-12.383168-31.245324z" fill="#2F2E41" p-id="2656"></path><path d="M834.381086 186.527881m-95.167287 0a95.167286 95.167286 0 1 0 190.334573 0 95.167286 95.167286 0 1 0-190.334573 0Z" fill="#A26EF4" p-id="2657"></path><path d="M833.669234 140.847584a26.64684 26.64684 0 0 1 26.64684 26.64684v7.613383h3.806692a11.420074 11.420074 0 0 1 11.420074 11.420074v30.453532a11.420074 11.420074 0 0 1-11.420074 11.420074h-60.907063a11.420074 11.420074 0 0 1-11.420075-11.420074v-30.453532a11.420074 11.420074 0 0 1 11.420075-11.420074h3.806691v-7.613383a26.64684 26.64684 0 0 1 26.64684-26.64684z m0 9.516728a17.130112 17.130112 0 0 0-17.114885 16.323093l-0.019033 0.807019v7.613383h34.260223v-7.613383a17.130112 17.130112 0 0 0-16.323093-17.111078l-0.807018-0.019034z" fill="#FFFFFF" p-id="2658"></path></svg>